<?xml version="1.0" encoding="UTF-8"?>
<svg width="752pt" height="752pt" version="1.1" viewBox="0 0 752 752" xmlns="http://www.w3.org/2000/svg">
 <path d="m355.75 496.43h-15.523l-5.4297-9.4297 7.7539-13.438c2.043-3.5234 0.82812-8.0664-2.7227-10.109-3.5352-2.0703-8.0664-0.85938-10.109 2.707l-7.7383 13.441h-10.879l-7.7383-13.438c-2.0703-3.5234-6.5859-4.7656-10.121-2.707-3.5352 2.043-4.75 6.543-2.707 10.109l7.7539 13.453-5.4297 9.4141-15.531-0.003907c-4.0859 0-7.3984 3.3281-7.3984 7.3984 0 4.0859 3.3164 7.3984 7.3984 7.3984h15.523l5.4297 9.4258-7.7539 13.438c-2.0586 3.5352-0.84375 8.0664 2.707 10.152 1.168 0.67969 2.4414 0.94531 3.6992 0.94531 2.5586 0 5.0469-1.332 6.4219-3.6992l7.7695-13.438h10.832l7.7695 13.438c1.375 2.3672 3.8633 3.6992 6.4219 3.6992 1.2578 0 2.5312-0.3125 3.6836-0.94531 3.5352-2.0859 4.75-6.5547 2.7227-10.152l-7.7695-13.438 5.4297-9.4258h15.539c4.0859 0 7.3984-3.3164 7.3984-7.3984 0.015625-4.0859-3.3008-7.3984-7.4023-7.3984zm-33.77 16.781h-10.863l-5.4297-9.4414 5.4297-9.3672h10.863l5.4297 9.4258zm202.04-190.43c-15.316-29.375-45.434-47.891-79.148-47.891-7.7852 0-15.465 0.99219-22.895 2.9609-20.57-26.773-52.047-42.445-86.277-42.445-51.992 0-96.566 37.34-106.84 87.184-31.832 4.6328-56.371 32.113-56.371 65.207 0 36.332 29.57 65.902 65.902 65.902h43.938c1.1562-1.0352 2.1328-2.2773 3.5234-3.0781 3.3008-1.9258 7.1484-2.9766 11.086-2.9766 5.6836 0 11.039 2.2656 15.109 6.0547h8.9961c4.0547-3.7891 9.4141-6.0547 15.109-6.0547 3.9062 0 7.7695 1.0508 11.16 3.0352 1.3477 0.80078 2.3086 2.0117 3.4492 3.0195h65.281c4.6602-10.449 9.5742-20.66 14.059-29.598l-191.71-0.003906c-20.023 0-36.305-16.309-36.305-36.305 0-19.992 16.25-36.258 36.109-36.258h0.058594l17.078 1.1094 1.1406-14.445c3.2422-41.039 38.035-73.184 79.207-73.184 27.852 0 53.203 14.266 67.824 38.152l6.6172 10.82 11.707-4.8828c7.2812-3.0625 15.082-4.6016 23.043-4.6016 24.625 0 46.426 14.801 55.527 37.723l3.6719 9.2188 9.9141 0.11719c19.801 0.23828 35.902 16.488 35.902 36.242 0 20.023-16.309 36.305-36.332 36.305h-30.695c4.4531 8.9258 9.3984 19.152 14.043 29.598h16.648c36.348 0 65.93-29.57 65.93-65.902 0.003907-32.598-24.117-59.961-55.465-65.023zm-111.59 188.23c0 24.316 19.727 44.059 44.043 44.059 24.359 0 44.086-19.742 44.086-44.059s-44.086-105.55-44.086-105.55c0 0.003906-44.043 81.234-44.043 105.55z"/>
</svg>
