<?xml version="1.0" encoding="UTF-8"?>
<svg width="752pt" height="752pt" version="1.1" viewBox="0 0 752 752" xmlns="http://www.w3.org/2000/svg">
 <path d="m395.67 543.07 45.699 45.699 45.699-45.699-45.699-65.016zm128.36-220.29c-15.316-29.375-45.434-47.891-79.148-47.891-7.7852 0-15.465 0.99219-22.895 2.9609-20.57-26.773-52.047-42.445-86.277-42.445-51.992 0-96.566 37.34-106.84 87.184-31.832 4.6328-56.371 32.113-56.371 65.207 0 36.332 29.57 65.902 65.902 65.902h34.598l20.809-29.598-55.406-0.003906c-20.023 0-36.305-16.309-36.305-36.305 0-19.992 16.25-36.258 36.109-36.258h0.058594l17.078 1.1094 1.1406-14.445c3.2422-41.039 38.035-73.184 79.207-73.184 27.852 0 53.203 14.266 67.824 38.152l6.6172 10.82 11.707-4.8828c7.2812-3.0625 15.082-4.6016 23.043-4.6016 24.625 0 46.426 14.801 55.527 37.723l3.6719 9.2188 9.9141 0.11719c19.801 0.23828 35.902 16.488 35.902 36.242 0 20.023-16.309 36.305-36.332 36.305l-176.22 0.003906 20.809 29.598h155.41c36.348 0 65.93-29.57 65.93-65.902 0-32.602-24.121-59.965-55.469-65.027zm-254.15 161.09 45.699 45.699 45.699-45.699-45.699-65.016z"/>
</svg>
