<?xml version="1.0" encoding="UTF-8"?>
<svg width="752pt" height="752pt" version="1.1" viewBox="0 0 752 752" xmlns="http://www.w3.org/2000/svg">
 <path d="m555.11 363.97-16.293-3.2109c-33.578-6.6172-39.93-30.441-14.191-52.938l12.504-10.922c25.734-22.512 20.348-31.879-12.016-20.836l-15.766 5.3398c-32.352 11.027-49.77-6.4219-38.73-38.758l5.3711-15.719c11.027-32.367 1.6445-37.781-20.836-12.016l-10.953 12.535c-22.512 25.723-46.336 19.344-52.879-14.191l-3.2969-16.324c-6.5859-33.551-17.477-33.551-24.051 0l-3.2109 16.293c-6.6016 33.535-30.441 39.914-52.938 14.191l-10.922-12.52c-22.508-25.723-31.891-20.332-20.852 12.031l5.3555 15.719c11.027 32.352-6.4219 49.785-38.758 38.758l-15.719-5.3555c-32.363-11.039-37.754-1.6562-12.031 20.836l12.52 10.922c25.723 22.512 19.344 46.32-14.191 52.938l-16.309 3.2109c-33.551 6.6172-33.551 17.449 0 24.062l16.309 3.2422c33.535 6.5859 39.914 30.426 14.191 52.922l-12.535 10.953c-25.734 22.496-20.32 31.82 12.031 20.793l15.719-5.3555c32.352-11.012 49.785 6.4219 38.758 38.715l-5.3555 15.762c-11.039 32.352-1.6562 37.754 20.836 12.016l10.922-12.504c22.512-25.734 46.336-19.402 52.938 14.191l3.2422 16.34c6.5859 33.551 17.434 33.551 24.051 0l3.1797-16.297c6.6172-33.566 30.473-39.93 52.953-14.191l10.953 12.504c22.512 25.734 31.848 20.336 20.809-12.016l-5.3438-15.762c-11.039-32.352 6.4062-49.785 38.699-38.746l15.746 5.3867c32.367 11.039 37.77 1.6445 12.016-20.824l-12.504-10.953c-25.734-22.512-19.418-46.336 14.191-52.922l16.324-3.2422c33.598-6.625 33.598-17.441 0.0625-24.059zm-179.11 124.57c-62.156 0-112.52-50.316-112.52-112.54 0-62.215 50.363-112.52 112.52-112.52 62.16 0 112.54 50.363 112.54 112.52 0 62.16-50.375 112.54-112.54 112.54zm0-204.34c-50.629 0-91.801 41.172-91.801 91.801s41.172 91.801 91.801 91.801 91.801-41.172 91.801-91.801-41.172-91.801-91.801-91.801z"/>
</svg>
