<?xml version="1.0" encoding="UTF-8"?>
<svg width="752pt" height="752pt" version="1.1" viewBox="0 0 752 752" xmlns="http://www.w3.org/2000/svg">
 <path d="m331.96 491.81c0 24.316 19.727 44.043 44.043 44.043s44.059-19.727 44.059-44.043c0-24.332-44.059-105.55-44.059-105.55s-44.043 81.262-44.043 105.55zm-105.45 43.492c0 24.344 19.727 44.074 44.043 44.074 24.316 0 44.043-19.727 44.043-44.074 0-24.332-44.043-105.56-44.043-105.56s-44.043 81.234-44.043 105.56zm57.809-111.2c2.9297 5.418 8.6875 16.34 15.23 29.598h27.898c3.832-9.7227 8.3164-19.906 12.875-29.598zm239.7-101.32c-15.316-29.375-45.434-47.891-79.148-47.891-7.7852 0-15.465 0.99219-22.895 2.9609-20.57-26.773-52.047-42.445-86.277-42.445-51.992 0-96.566 37.34-106.84 87.184-31.832 4.6328-56.371 32.113-56.371 65.207 0 36.332 29.57 65.902 65.902 65.902h3.1523c6.5273-13.246 12.297-24.152 15.23-29.598l-18.383-0.003906c-20.023 0-36.305-16.309-36.305-36.305 0-19.992 16.25-36.258 36.109-36.258h0.058594l17.078 1.1094 1.1406-14.445c3.2422-41.039 38.035-73.184 79.207-73.184 27.852 0 53.203 14.266 67.824 38.152l6.6172 10.82 11.707-4.8828c7.2812-3.0625 15.082-4.6016 23.043-4.6016 24.625 0 46.426 14.801 55.527 37.723l3.6719 9.2188 9.9141 0.11719c19.801 0.23828 35.902 16.488 35.902 36.242 0 20.023-16.309 36.305-36.332 36.305h-21.117c2.9297 5.4453 8.7188 16.34 15.242 29.598h5.8594c36.348 0 65.93-29.57 65.93-65.902 0.015626-32.598-24.105-59.961-55.453-65.023zm-59.121 101.32h-53.219c4.5586 9.6953 9.0273 19.875 12.848 29.598h25.145c6.5391-13.258 12.324-24.164 15.227-29.598zm-30.266 111.2c0 24.344 19.727 44.074 44.043 44.074 24.359 0 44.086-19.727 44.086-44.074 0-24.332-44.086-105.56-44.086-105.56s-44.043 81.234-44.043 105.56z"/>
</svg>
