<?xml version="1.0" encoding="UTF-8"?>
<svg width="752pt" height="752pt" version="1.1" viewBox="0 0 752 752" xmlns="http://www.w3.org/2000/svg">
 <path d="m415.19 431.5h-15.512l-5.4297-9.4258 7.7539-13.438c2.043-3.5352 0.82812-8.0664-2.7227-10.121-3.5352-2.1016-8.082-0.875-10.109 2.7227l-7.7539 13.438h-10.879l-7.7383-13.438c-2.0703-3.5352-6.5859-4.7656-10.121-2.7227-3.5352 2.0586-4.75 6.5273-2.707 10.121l7.7539 13.453-5.4297 9.4141h-15.523c-4.0859 0-7.3984 3.3281-7.3984 7.3984 0 4.0703 3.3164 7.3984 7.3984 7.3984h15.523l5.4297 9.4141-7.7539 13.453c-2.0586 3.5352-0.84375 8.0664 2.707 10.121 1.168 0.66406 2.4414 0.97656 3.6992 0.97656 2.5586 0 5.0469-1.332 6.4219-3.6992l7.7695-13.453h10.832l7.7695 13.453c1.3633 2.3672 3.8477 3.6992 6.4219 3.6992 1.2578 0 2.5312-0.3125 3.6836-0.97656 3.5352-2.0586 4.75-6.5273 2.7227-10.121l-7.7539-13.453 5.4336-9.418h15.555c4.0703 0 7.3984-3.3281 7.3984-7.3984 0-4.0703-3.3281-7.3984-7.4414-7.3984zm-33.758 16.812h-10.863l-5.4297-9.4141 5.4297-9.4258h10.863l5.4297 9.4258zm-25.988 88.113h-15.523l-5.4297-9.4258 7.7539-13.438c2.043-3.5234 0.82812-8.0664-2.7227-10.121-3.5352-2.0586-8.0664-0.84375-10.109 2.7227l-7.7539 13.438h-10.879l-7.7383-13.438c-2.0703-3.5234-6.5859-4.7656-10.121-2.7227-3.5352 2.0586-4.75 6.5547-2.707 10.121l7.7539 13.453-5.4375 9.4102h-15.508c-4.0859 0-7.3984 3.3281-7.3984 7.3984 0 4.0859 3.3164 7.3984 7.3984 7.3984h15.523l5.4297 9.4258-7.7539 13.438c-2.0586 3.5352-0.84375 8.0664 2.707 10.121 1.168 0.71094 2.4414 0.97656 3.6992 0.97656 2.5586 0 5.0469-1.332 6.4219-3.6992l7.7695-13.438h10.832l7.7695 13.438c1.375 2.3672 3.8633 3.6992 6.4219 3.6992 1.2578 0 2.5312-0.3125 3.6836-0.97656 3.5352-2.0586 4.75-6.5273 2.7227-10.121l-7.7695-13.438 5.4297-9.4258h15.539c4.0859 0 7.3984-3.3164 7.3984-7.3984 0.011719-4.082-3.3047-7.3984-7.4023-7.3984zm-33.773 16.828h-10.863l-5.4297-9.4258 5.4297-9.4258h10.863l5.4297 9.4258zm202.35-230.47c-15.316-29.375-45.434-47.891-79.148-47.891-7.7852 0-15.465 0.99219-22.895 2.9609-20.57-26.773-52.047-42.445-86.277-42.445-51.992 0-96.566 37.34-106.84 87.184-31.832 4.6328-56.371 32.113-56.371 65.207 0 36.332 29.57 65.902 65.902 65.902h81.973c-3.5508-3.9375-5.7734-9.0859-5.7734-14.801 0-5.7109 2.2188-10.863 5.7734-14.801h-81.973c-20.023 0-36.305-16.309-36.305-36.305 0-19.992 16.25-36.258 36.109-36.258h0.058594l17.078 1.1094 1.1406-14.445c3.2422-41.039 38.035-73.184 79.207-73.184 27.852 0 53.203 14.266 67.824 38.152l6.6172 10.82 11.707-4.8828c7.2812-3.0625 15.082-4.6016 23.043-4.6016 24.625 0 46.426 14.801 55.527 37.723l3.6719 9.2188 9.9141 0.11719c19.801 0.23828 35.902 16.488 35.902 36.242 0 20.023-16.309 36.305-36.332 36.305h-82.301c2.8867 3.1523 5.1055 6.957 5.8008 11.379 0.53125-0.32422 0.88672-0.91797 1.4648-1.2734 3.3438-1.9102 7.1484-2.9766 11.07-2.9766 7.875 0 15.23 4.2461 19.223 11.07l0.39844 0.69531 0.37109-0.63672c3.9531-6.8516 11.32-11.129 19.223-11.129 3.9375 0 7.7695 1.0664 11.16 3.0352 5.0898 2.9023 8.7461 7.7109 10.285 13.422 0.51953 2.0117 0.67969 4.0117 0.66406 6.0078h2.6328c36.348 0 65.93-29.57 65.93-65.902 0.007813-32.594-24.113-59.957-55.461-65.02zm-15.598 157.21h-15.539l-5.418-9.4258 7.7539-13.438c2.0273-3.5352 0.8125-8.0664-2.7656-10.152-3.5352-2.0703-8.0664-0.84375-10.137 2.7539l-7.7266 13.438-10.832-0.003906-7.7109-13.438c-2.1016-3.5352-6.5859-4.7656-10.168-2.7539-3.5234 2.0859-4.7344 6.5547-2.707 10.152l7.7539 13.438-5.4297 9.4258h-15.523c-4.0859 0-7.3984 3.3164-7.3984 7.3984 0 4.0391 3.3164 7.3984 7.3984 7.3984h15.523l5.4297 9.4141-7.7539 13.453c-2.0703 3.5234-0.85938 8.0664 2.707 10.109 1.168 0.67969 2.457 0.99219 3.6992 0.99219 2.5742 0 5.0625-1.332 6.4688-3.6992l7.7266-13.453h10.832l7.7695 13.453c1.375 2.3672 3.8633 3.6992 6.4219 3.6992 1.2578 0 2.5312-0.3125 3.6836-0.99219 3.5352-2.043 4.75-6.543 2.7383-10.109l-7.7383-13.453 5.4023-9.4141h15.57c4.0547 0 7.3984-3.3594 7.3984-7.3984-0.027344-4.0781-3.3281-7.3945-7.4297-7.3945zm-33.773 16.812h-10.863l-5.4297-9.4141 5.4297-9.4258h10.863l5.4297 9.4258z"/>
</svg>
